<mxfile host="Electron" modified="2023-12-13T02:28:28.968Z" agent="Mozilla/5.0 (Windows NT 10.0; Win64; x64) AppleWebKit/537.36 (KHTML, like Gecko) draw.io/22.1.2 Chrome/114.0.5735.289 Electron/25.9.4 Safari/537.36" etag="bSB-K8LjwN6so7s9m8BW" version="22.1.2" type="device">
  <diagram name="Page-1" id="GWHjZiozi7kiLOSyXkyY">
    <mxGraphModel dx="1276" dy="606" grid="1" gridSize="10" guides="1" tooltips="1" connect="1" arrows="1" fold="1" page="1" pageScale="1" pageWidth="850" pageHeight="1100" math="0" shadow="0">
      <root>
        <mxCell id="0" />
        <mxCell id="1" parent="0" />
        <mxCell id="HYg1svsiwccro3s2MDiJ-2" value="" style="shape=cylinder3;whiteSpace=wrap;html=1;boundedLbl=1;backgroundOutline=1;size=15;" vertex="1" parent="1">
          <mxGeometry x="370" y="460" width="70" height="90" as="geometry" />
        </mxCell>
        <mxCell id="HYg1svsiwccro3s2MDiJ-3" value="" style="rounded=0;whiteSpace=wrap;html=1;" vertex="1" parent="1">
          <mxGeometry x="100" y="300" width="120" height="60" as="geometry" />
        </mxCell>
        <mxCell id="HYg1svsiwccro3s2MDiJ-4" value="" style="ellipse;whiteSpace=wrap;html=1;" vertex="1" parent="1">
          <mxGeometry x="356" y="285" width="100" height="90" as="geometry" />
        </mxCell>
        <mxCell id="HYg1svsiwccro3s2MDiJ-5" value="" style="rounded=0;whiteSpace=wrap;html=1;" vertex="1" parent="1">
          <mxGeometry x="590" y="300" width="120" height="60" as="geometry" />
        </mxCell>
        <mxCell id="HYg1svsiwccro3s2MDiJ-6" value="" style="endArrow=classic;html=1;rounded=0;exitX=1;exitY=0.333;exitDx=0;exitDy=0;entryX=-0.008;entryY=0.369;entryDx=0;entryDy=0;entryPerimeter=0;exitPerimeter=0;" edge="1" parent="1" source="HYg1svsiwccro3s2MDiJ-3" target="HYg1svsiwccro3s2MDiJ-4">
          <mxGeometry width="50" height="50" relative="1" as="geometry">
            <mxPoint x="400" y="340" as="sourcePoint" />
            <mxPoint x="450" y="290" as="targetPoint" />
          </mxGeometry>
        </mxCell>
        <mxCell id="HYg1svsiwccro3s2MDiJ-7" value="" style="endArrow=classic;html=1;rounded=0;" edge="1" parent="1">
          <mxGeometry width="50" height="50" relative="1" as="geometry">
            <mxPoint x="456" y="350" as="sourcePoint" />
            <mxPoint x="591" y="350" as="targetPoint" />
          </mxGeometry>
        </mxCell>
        <mxCell id="HYg1svsiwccro3s2MDiJ-8" value="" style="endArrow=classic;html=1;rounded=0;entryX=1;entryY=0.75;entryDx=0;entryDy=0;" edge="1" parent="1" target="HYg1svsiwccro3s2MDiJ-3">
          <mxGeometry width="50" height="50" relative="1" as="geometry">
            <mxPoint x="360" y="345" as="sourcePoint" />
            <mxPoint x="450" y="290" as="targetPoint" />
          </mxGeometry>
        </mxCell>
        <mxCell id="HYg1svsiwccro3s2MDiJ-9" value="" style="endArrow=classic;html=1;rounded=0;" edge="1" parent="1">
          <mxGeometry width="50" height="50" relative="1" as="geometry">
            <mxPoint x="590" y="320" as="sourcePoint" />
            <mxPoint x="460" y="320" as="targetPoint" />
            <Array as="points">
              <mxPoint x="520" y="320" />
            </Array>
          </mxGeometry>
        </mxCell>
        <mxCell id="HYg1svsiwccro3s2MDiJ-10" value="" style="endArrow=classic;html=1;rounded=0;entryX=0.271;entryY=-0.012;entryDx=0;entryDy=0;entryPerimeter=0;" edge="1" parent="1" target="HYg1svsiwccro3s2MDiJ-2">
          <mxGeometry width="50" height="50" relative="1" as="geometry">
            <mxPoint x="390" y="380" as="sourcePoint" />
            <mxPoint x="450" y="290" as="targetPoint" />
          </mxGeometry>
        </mxCell>
        <mxCell id="HYg1svsiwccro3s2MDiJ-11" value="" style="endArrow=classic;html=1;rounded=0;entryX=0.6;entryY=1;entryDx=0;entryDy=0;entryPerimeter=0;" edge="1" parent="1" target="HYg1svsiwccro3s2MDiJ-4">
          <mxGeometry width="50" height="50" relative="1" as="geometry">
            <mxPoint x="416" y="456" as="sourcePoint" />
            <mxPoint x="400" y="469" as="targetPoint" />
          </mxGeometry>
        </mxCell>
        <mxCell id="HYg1svsiwccro3s2MDiJ-13" value="Admin" style="text;html=1;strokeColor=none;fillColor=none;align=center;verticalAlign=middle;whiteSpace=wrap;rounded=0;" vertex="1" parent="1">
          <mxGeometry x="130" y="315" width="60" height="30" as="geometry" />
        </mxCell>
        <mxCell id="HYg1svsiwccro3s2MDiJ-14" value="Database" style="text;html=1;strokeColor=none;fillColor=none;align=center;verticalAlign=middle;whiteSpace=wrap;rounded=0;" vertex="1" parent="1">
          <mxGeometry x="376" y="500" width="60" height="30" as="geometry" />
        </mxCell>
        <mxCell id="HYg1svsiwccro3s2MDiJ-15" value="Student" style="text;html=1;strokeColor=none;fillColor=none;align=center;verticalAlign=middle;whiteSpace=wrap;rounded=0;" vertex="1" parent="1">
          <mxGeometry x="620" y="315" width="60" height="30" as="geometry" />
        </mxCell>
        <mxCell id="HYg1svsiwccro3s2MDiJ-16" value="Placement&lt;br&gt;Cell" style="text;html=1;strokeColor=none;fillColor=none;align=center;verticalAlign=middle;whiteSpace=wrap;rounded=0;" vertex="1" parent="1">
          <mxGeometry x="380" y="315" width="60" height="30" as="geometry" />
        </mxCell>
        <mxCell id="HYg1svsiwccro3s2MDiJ-17" value="Add" style="text;html=1;strokeColor=none;fillColor=none;align=center;verticalAlign=middle;whiteSpace=wrap;rounded=0;" vertex="1" parent="1">
          <mxGeometry x="340" y="410" width="60" height="30" as="geometry" />
        </mxCell>
        <mxCell id="HYg1svsiwccro3s2MDiJ-18" value="Retrieve" style="text;html=1;strokeColor=none;fillColor=none;align=center;verticalAlign=middle;whiteSpace=wrap;rounded=0;" vertex="1" parent="1">
          <mxGeometry x="420" y="410" width="60" height="30" as="geometry" />
        </mxCell>
        <mxCell id="HYg1svsiwccro3s2MDiJ-20" value="Login" style="text;html=1;strokeColor=none;fillColor=none;align=center;verticalAlign=middle;whiteSpace=wrap;rounded=0;" vertex="1" parent="1">
          <mxGeometry x="260" y="290" width="60" height="30" as="geometry" />
        </mxCell>
        <mxCell id="HYg1svsiwccro3s2MDiJ-22" value="Login" style="text;html=1;strokeColor=none;fillColor=none;align=center;verticalAlign=middle;whiteSpace=wrap;rounded=0;" vertex="1" parent="1">
          <mxGeometry x="490" y="290" width="60" height="30" as="geometry" />
        </mxCell>
        <mxCell id="HYg1svsiwccro3s2MDiJ-24" value="Set of operation" style="text;html=1;strokeColor=none;fillColor=none;align=center;verticalAlign=middle;whiteSpace=wrap;rounded=0;" vertex="1" parent="1">
          <mxGeometry x="260" y="350" width="60" height="30" as="geometry" />
        </mxCell>
        <mxCell id="HYg1svsiwccro3s2MDiJ-25" value="Set of operation" style="text;html=1;strokeColor=none;fillColor=none;align=center;verticalAlign=middle;whiteSpace=wrap;rounded=0;" vertex="1" parent="1">
          <mxGeometry x="490" y="350" width="60" height="30" as="geometry" />
        </mxCell>
      </root>
    </mxGraphModel>
  </diagram>
</mxfile>
